<?xml version="1.0" standalone="no"?>
<!DOCTYPE svg PUBLIC "-//W3C//DTD SVG 20010904//EN"
 "http://www.w3.org/TR/2001/REC-SVG-20010904/DTD/svg10.dtd">
<svg version="1.0" xmlns="http://www.w3.org/2000/svg"
 width="225.000000pt" height="225.000000pt" viewBox="0 0 225.000000 225.000000"
 preserveAspectRatio="xMidYMid meet">

<g transform="translate(0.000000,225.000000) scale(0.100000,-0.100000)"
fill="#000000" stroke="none">
<path d="M911 2059 c-164 -5 -299 -13 -304 -18 -6 -6 -108 -162 -227 -348
-213 -330 -217 -338 -191 -343 23 -5 27 -12 39 -70 11 -58 21 -151 24 -235 1
-16 -2 -50 -7 -74 -8 -42 -7 -44 13 -39 12 4 25 2 28 -3 3 -6 15 -4 28 4 12 8
30 16 39 18 15 3 13 11 -16 54 -27 39 -33 57 -29 83 3 21 -1 39 -11 50 -13 16
-46 207 -36 216 2 2 60 7 129 11 l125 7 41 -71 42 -72 32 58 c51 91 159 190
262 240 93 46 233 90 311 100 26 3 47 8 47 11 0 3 -13 29 -30 59 -16 29 -30
58 -30 64 0 7 26 53 59 103 32 50 75 117 95 149 l37 57 -88 -2 c-48 0 -220 -5
-382 -9z"/>
<path d="M1860 1290 c0 -38 -53 -142 -96 -190 -71 -78 -157 -132 -387 -239
-214 -101 -341 -201 -389 -308 -27 -59 -35 -202 -16 -282 14 -57 22 -63 108
-84 l25 -6 0 107 c0 99 2 112 31 172 33 67 90 132 159 180 22 15 110 62 195
105 186 93 246 130 317 197 64 62 90 101 113 176 l18 57 -29 55 c-42 82 -49
90 -49 60z"/>
<path d="M1946 1070 c-9 -59 -56 -147 -111 -208 -28 -31 -106 -91 -189 -147
-208 -138 -264 -207 -274 -338 -3 -47 1 -88 13 -132 16 -62 18 -65 44 -58 70
17 70 16 69 92 0 57 5 81 26 126 37 74 90 118 221 179 89 42 119 63 157 105
81 89 104 191 77 337 -15 82 -25 95 -33 44z"/>
<path d="M1914 609 c-10 -12 -52 -44 -92 -71 -87 -59 -123 -109 -130 -180 l-5
-51 29 20 c70 50 174 184 210 269 17 40 14 42 -12 13z"/>
</g>
</svg>
